<?xml version="1.0" encoding="utf-8"?>
<!-- Generator: Adobe Illustrator 24.0.1, SVG Export Plug-In . SVG Version: 6.00 Build 0)  -->
<svg version="1.1" id="Layer_1" xmlns="http://www.w3.org/2000/svg" xmlns:xlink="http://www.w3.org/1999/xlink" x="0px" y="0px"
	 viewBox="0 0 526.4 233.2" style="enable-background:new 0 0 526.4 233.2;" xml:space="preserve">
<style type="text/css">
	.st0{fill:#CE8B4E;}
	.st1{fill:#80C342;}
	.st2{fill:#F26531;}
	.st3{fill:#008DD0;}
	.st4{fill:#993F98;}
	.st5{fill:#C9252C;}
	.st6{fill:#349E49;}
	.st7{fill:#103856;}
	.st8{fill:#009EDB;}
	.st9{fill:#E4243C;}
	.st10{fill:#DDA639;}
	.st11{fill:#4C9E45;}
	.st12{fill:#C4202F;}
	.st13{fill:#EF412B;}
	.st14{fill:#26BDE3;}
	.st15{fill:#FAC212;}
	.st16{fill:#A31D43;}
	.st17{fill:#F26A2C;}
	.st18{fill:#DE1767;}
	.st19{fill:#F99E26;}
	.st20{fill:#BF8B2C;}
	.st21{fill:#3F7E45;}
	.st22{fill:#1B95D3;}
	.st23{fill:#5BBA47;}
	.st24{fill:#006A9E;}
	.st25{fill:#18486B;}
</style>
<g>
	<path class="st0" d="M113.9,43.2c-0.6-0.6-1.4-0.9-2.2-0.9c-0.1,0-0.2,0-0.3,0c-16.6,1.7-32.3,9.2-44.1,21.1
		c-0.6,0.6-0.9,1.5-0.9,2.3c0.1,0.9,0.5,1.7,1.2,2.2l0,0c0.5,0.4,1.2,0.7,1.9,0.7c0.8,0,1.6-0.3,2.2-0.9c3.7-3.7,7.7-6.9,12.1-9.6
		c0.3-0.2,0.6,0,0.6,0.3c-0.1,1.5,0.3,3.1,1.1,4.5c1.9,3.1,5.8,4.5,9.2,3.2c4.4-1.6,6.4-6.6,4.4-10.7c-0.6-1.2-1.5-2.2-2.5-3
		c-0.2-0.2-0.2-0.6,0.1-0.7c4.9-1.7,10-2.9,15.2-3.4c1.5-0.2,2.8-1.3,2.9-2.8C114.8,44.7,114.5,43.8,113.9,43.2z"/>
	<path class="st1" d="M60.9,92.9c-1.4-0.4-2.9-0.3-4.2,0.1c-0.3,0.1-0.6-0.2-0.5-0.5c1.7-4.9,4-9.6,6.8-14c0.9-1.3,0.7-3.1-0.5-4.2
		c-1-0.9-2.4-1-3.6-0.3c-0.4,0.3-0.8,0.6-1.1,1.1c-7.5,11.6-11.4,25.1-11.4,39c0,2.8,0.2,5.7,0.5,8.5c0.2,1.6,1.5,2.7,3.1,2.7
		c0.2,0,0.5,0,0.7-0.1c1.6-0.3,2.6-1.8,2.4-3.4c-0.3-2.6-0.5-5.2-0.5-7.7c0-2.6,0.2-5.2,0.5-7.8c0-0.3,0.4-0.4,0.6-0.2
		c1,0.9,2.2,1.5,3.5,1.9c4.3,1,8.5-1.8,9.4-6.1C67.3,97.9,64.8,93.9,60.9,92.9z"/>
	<path class="st2" d="M179.7,75.5c-0.6-0.9-1.6-1.5-2.7-1.6c-0.7,0-1.4,0.2-1.9,0.7c-1.3,1-1.6,2.8-0.7,4.1c2.8,4.4,5,9,6.7,13.9
		c0.1,0.3-0.2,0.6-0.5,0.5c-1.3-0.4-2.8-0.5-4.2-0.1c-3.9,1-6.4,5-5.7,8.9c0.8,4.4,5.1,7.1,9.4,6.1c1.4-0.3,2.6-1,3.5-1.9
		c0.2-0.2,0.6-0.1,0.6,0.2c0.3,2.6,0.5,5.1,0.5,7.7c0,2.7-0.2,5.4-0.5,8.1c-0.2,1.6,0.8,3,2.4,3.4c0.2,0.1,0.5,0.1,0.7,0.1
		c1.6,0,2.9-1.2,3.1-2.7c0.4-2.9,0.5-5.9,0.5-8.8C190.9,100.4,187.1,87,179.7,75.5z"/>
	<path class="st3" d="M170.3,63.5c-11.7-12-27.3-19.5-43.9-21.3c-0.1,0-0.2,0-0.3,0c-1.8,0-3.2,1.5-3.1,3.3c0.1,1.5,1.4,2.7,2.9,2.9
		c5.1,0.6,10.1,1.7,14.9,3.4c0.3,0.1,0.3,0.5,0.1,0.7c-1.3,0.9-2.3,2.1-2.8,3.7c-1.2,3.4,0.1,7.3,3.2,9.2c4,2.5,9.1,0.9,11.1-3.2
		c0.6-1.2,0.8-2.6,0.8-3.8c0-0.3,0.3-0.5,0.6-0.3c4.4,2.8,8.6,6.1,12.3,9.8c0.6,0.6,1.4,0.9,2.2,0.9c0.7,0,1.4-0.2,1.9-0.7
		c1-0.8,1.4-2.1,1.1-3.4C170.9,64.4,170.6,63.9,170.3,63.5z"/>
	<path class="st4" d="M144.7,177.9c-0.5-1.1-1.6-1.8-2.8-1.8c-0.4,0-0.7,0.1-1,0.2c-4.9,1.8-10,2.9-15.1,3.5c-0.3,0-0.5-0.3-0.4-0.6
		c0.7-1.2,1.1-2.6,1.1-4.1c-0.1-4-3.4-7.4-7.5-7.6c-4.4-0.2-8.1,3.4-8.1,7.8c0,1.4,0.4,2.8,1.1,3.9c0.2,0.3-0.1,0.6-0.4,0.6
		c-5.3-0.6-10.5-1.8-15.5-3.6c-0.3-0.1-0.7-0.2-1.1-0.2c-1.2,0-2.3,0.7-2.8,1.7c-0.4,0.8-0.4,1.7-0.1,2.5c0.3,0.8,1,1.4,1.8,1.7
		c7.9,2.9,16.2,4.3,24.7,4.3c8.3,0,16.5-1.4,24.3-4.2c0.8-0.3,1.5-0.9,1.8-1.7C145.1,179.7,145.1,178.7,144.7,177.9z"/>
	<path class="st5" d="M186.8,135.1c-0.4-0.8-1.2-1.3-2-1.5c-0.2-0.1-0.5-0.1-0.7-0.1c-1.3,0-2.5,0.8-2.9,2.1
		c-1.7,4.9-4,9.6-6.7,13.9c-0.2,0.3-0.5,0.2-0.7-0.1c-0.5-1.3-1.4-2.4-2.5-3.3c-3.2-2.4-7.9-1.9-10.5,1.1c-2.9,3.4-2.4,8.4,1,11.1
		c1.1,0.9,2.4,1.4,3.6,1.6c0.3,0,0.4,0.4,0.2,0.6c-3.7,3.7-7.7,7-12.2,9.7c-1.1,0.7-1.8,2-1.5,3.3c0.3,1.5,1.6,2.5,3.1,2.5
		c0.6,0,1.1-0.2,1.6-0.5c14.3-8.8,25.1-22.3,30.5-38.1C187.3,136.8,187.2,135.9,186.8,135.1z"/>
	<path class="st6" d="M83.8,170.3c-4.4-2.8-8.5-6-12.1-9.7c-0.2-0.2-0.1-0.6,0.2-0.6c1.4-0.2,2.7-0.8,3.8-1.7
		c3.1-2.6,3.6-7.3,1.2-10.5c-2.6-3.6-7.7-4.2-11.1-1.5c-1.1,0.9-1.9,2-2.4,3.2c-0.1,0.3-0.5,0.3-0.7,0.1c-2.8-4.4-5.1-9.2-6.8-14.2
		c-0.4-1.3-1.6-2.1-2.9-2.1c-0.2,0-0.5,0-0.7,0.1c-0.9,0.2-1.6,0.7-2,1.5c-0.4,0.8-0.5,1.7-0.2,2.5c5.3,15.8,16.1,29.4,30.3,38.3
		c0.5,0.3,1.1,0.5,1.6,0.5c1.2,0,2.3-0.7,2.8-1.8C85.7,172.8,85.2,171.1,83.8,170.3z"/>
	<path class="st7" d="M183.8,53.6c0.6,0.6,1.4,1,2.3,1c0.7,0,1.4-0.2,1.9-0.7c0.7-0.5,1.1-1.3,1.2-2.2c0.1-0.9-0.2-1.7-0.8-2.4
		c-7.1-7.6-15.3-14-24.5-19c-0.4-0.2-0.6-0.8-0.4-1.2l6.9-14.3c0.2-0.5,0.8-0.7,1.3-0.4c3.8,2,7.6,4.3,11.1,6.8
		c0.4,0.3,0.9,0.5,1.5,0.6c1.3,0.2,2.6-0.5,3.1-1.7c0.7-1.4,0.2-3-1-3.9c-10-7-21-12.3-32.6-15.9c-0.3-0.1-0.6-0.1-0.9-0.1
		c0,0,0,0,0,0c-1.2,0-2.3,0.7-2.8,1.7c-0.6,1.1-0.4,2.5,0.6,3.5c0.4,0.4,0.9,0.7,1.4,0.8c3.9,1.2,7.9,2.7,11.7,4.3
		c0.5,0.2,0.7,0.8,0.5,1.3l-6.9,14.3c-0.2,0.4-0.7,0.6-1.2,0.4c-9.4-4-19.4-6.5-29.7-7.3c-0.1,0-0.2,0-0.2,0c-1.7,0-3.1,1.4-3.1,3.1
		c0,1.6,1.2,3,2.8,3.1c10.5,0.8,20.6,3.5,30.1,7.8c9.5,4.4,18.1,10.4,25.6,17.9C182.3,52,183,52.8,183.8,53.6z"/>
	<path class="st7" d="M73.7,190.9c-6.5-3.8-12.5-8.5-17.9-13.9c-10.3-10.3-17.9-22.9-22.1-36.6c-0.4-1.3-1.6-2.2-2.9-2.2
		c-0.2,0-0.5,0-0.7,0.1c-0.8,0.2-1.6,0.7-2,1.5c-0.4,0.7-0.5,1.6-0.3,2.5c3.1,9.9,7.7,19.2,13.8,27.7c0.3,0.4,0.2,1-0.2,1.3L29,181
		c-0.4,0.3-1,0.2-1.3-0.2c-2.6-3.6-5.1-7.3-7.2-11.1c-0.6-1-1.6-1.7-2.7-1.7c-0.7,0-1.4,0.2-2,0.7c-1.2,0.9-1.5,2.6-0.8,3.9
		c6,10.6,13.5,20.2,22.4,28.5c0.6,0.5,1.3,0.8,2.1,0.8c0.7,0,1.4-0.2,1.9-0.7c1-0.8,1.4-2.1,1-3.4c-0.2-0.5-0.5-1-0.9-1.3
		c-1-0.9-1.8-1.7-2.7-2.6c-1.9-1.9-3.9-4-5.7-6.2c-0.3-0.4-0.3-1,0.1-1.3l12.4-9.9c0.4-0.3,0.9-0.3,1.3,0.1
		c6.8,7.8,14.7,14.4,23.6,19.6c0.5,0.3,1,0.4,1.6,0.4c1.2,0,2.3-0.7,2.8-1.7C75.6,193.4,75.1,191.7,73.7,190.9z"/>
	<path class="st7" d="M151.9,196.9c-0.4,0-0.7,0.1-1.1,0.2c-10.2,3.9-21,5.9-32.1,5.9h-0.1c-11.2,0-22.2-2.1-32.5-6.1
		c-0.4-0.1-0.7-0.2-1.1-0.2c-1.2,0-2.3,0.7-2.8,1.7c-0.4,0.8-0.4,1.7-0.1,2.5c0.3,0.8,1,1.4,1.8,1.8c9.7,3.8,19.9,6,30.4,6.4
		c0.5,0,0.9,0.4,0.9,0.9v15.9c0,0.5-0.4,1-1,0.9c-4.3-0.2-8.6-0.6-12.8-1.2c-0.2,0-0.3,0-0.5,0c-0.8,0-1.6,0.3-2.2,0.9
		c-0.6,0.6-0.9,1.4-0.9,2.2c0,1.5,1.1,2.8,2.6,3.1c6,0.9,12.1,1.4,18.1,1.4c6,0,12.1-0.5,18.1-1.4c1.5-0.2,2.6-1.5,2.6-3.1
		c0-1.7-1.4-3.1-3.1-3.1c-0.2,0-0.3,0-0.5,0c-4.2,0.6-8.5,1-12.8,1.2c-0.5,0-1-0.4-1-0.9V210c0-0.5,0.4-0.9,0.9-0.9
		c10.3-0.5,20.4-2.6,30-6.3c0.8-0.3,1.4-0.9,1.8-1.7c0.3-0.8,0.3-1.7-0.1-2.5C154.1,197.6,153,196.9,151.9,196.9z"/>
	<path class="st7" d="M114.8,22.4c0-0.8-0.3-1.6-0.9-2.2c-0.6-0.6-1.4-0.9-2.2-0.9c-0.1,0-0.2,0-0.2,0c-10.4,0.8-20.5,3.2-30.1,7.3
		c-0.5,0.2-1,0-1.2-0.4l-6.9-14.4c-0.2-0.5,0-1,0.5-1.3c4-1.7,8.2-3.3,12.4-4.5c0.5-0.2,1-0.4,1.4-0.8c0.9-1,1.1-2.4,0.6-3.5
		C87.6,0.7,86.5,0,85.3,0c-0.3,0-0.6,0-0.9,0.1C72.8,3.6,61.8,8.9,51.7,15.7c-1.2,0.8-1.7,2.5-1,3.9c0.5,1.1,1.6,1.8,2.8,1.8
		c0.6,0,1.2-0.2,1.7-0.5c3.4-2.3,7-4.5,10.7-6.4c0.5-0.2,1-0.1,1.3,0.4l6.9,14.4c0.2,0.4,0,1-0.4,1.2c-9.1,4.9-17.2,11.2-24.3,18.7
		c-0.6,0.6-0.9,1.5-0.8,2.3c0.1,0.9,0.5,1.7,1.2,2.2c0.5,0.4,1.2,0.7,1.9,0.7c0.9,0,1.7-0.4,2.3-1c0.6-0.7,1.3-1.4,1.9-2
		c7.6-7.6,16.2-13.6,25.8-18c9.6-4.4,19.8-7,30.3-7.8C113.6,25.4,114.8,24,114.8,22.4z"/>
	<path class="st7" d="M221.1,169.5c-0.6-0.5-1.3-0.7-2-0.7c-1.1,0-2.1,0.7-2.7,1.7c-2.1,3.6-4.4,7.1-6.9,10.5
		c-0.3,0.4-0.9,0.5-1.3,0.2l-12.4-9.9c-0.4-0.3-0.5-0.9-0.2-1.3c6.1-8.3,10.7-17.5,13.8-27.3c0.3-0.8,0.2-1.7-0.3-2.5
		c-0.4-0.7-1.2-1.3-2-1.5c-0.2-0.1-0.5-0.1-0.7-0.1c-1.4,0-2.5,0.9-2.9,2.2c-4.2,13.5-11.8,26-22,36.2c-5.5,5.5-11.6,10.2-18.2,14
		c-1,0.6-1.7,1.7-1.6,2.9c0.1,1.7,1.5,2.9,3.1,2.9c0.5,0,1.1-0.1,1.6-0.4c9-5.2,17-11.9,23.9-19.7c0.3-0.4,0.9-0.4,1.3-0.1l12.4,9.9
		c0.4,0.3,0.5,0.9,0.1,1.3c-1.9,2.1-3.7,4.2-5.6,6.1c-1,1-2.2,2.1-3.3,3.2c-0.4,0.4-0.7,0.8-0.9,1.3c-0.4,1.3,0,2.6,1,3.4
		c0.5,0.4,1.2,0.7,1.9,0.7c0.8,0,1.5-0.3,2.1-0.8c9-8.3,16.6-17.8,22.6-28.3C222.7,172.1,222.3,170.4,221.1,169.5z"/>
	<path class="st7" d="M229.4,70.5c-0.5-1.2-1.6-1.9-2.9-1.9c-0.2,0-0.5,0-0.7,0.1c-1.2,0.3-2.2,1.3-2.4,2.6c-0.1,0.5,0,1.1,0.2,1.6
		c1.5,3.9,2.8,7.9,3.9,12c0.1,0.5-0.2,1-0.7,1.1l-15.5,3.5c-0.5,0.1-1-0.2-1.1-0.7c-2.7-9.9-7-19.2-12.7-27.6
		c-0.6-0.9-1.6-1.5-2.7-1.5c-0.7,0-1.4,0.2-1.9,0.7c-1.3,1-1.5,2.8-0.6,4.1c9.9,14.6,15.2,31.8,15.2,49.7c0,4.4-0.3,8.8-1,13.1
		c-0.2,1.5,0.8,3,2.2,3.4c0.2,0.1,0.5,0.1,0.7,0.1c1.6,0.1,3-1.2,3.2-2.8c0.7-4.6,1-9.3,1-13.9c0-5.7-0.5-11.4-1.5-16.9
		c-0.1-0.5,0.2-1,0.7-1.1l15.5-3.5c0.5-0.1,1,0.2,1.1,0.7c0.8,4.3,1.3,8.6,1.6,12.9c0.1,1.6,1.5,2.9,3.1,2.9c0.2,0,0.5,0,0.7-0.1
		c1.5-0.3,2.5-1.7,2.4-3.2C236.6,93.7,233.9,81.8,229.4,70.5z"/>
	<path class="st7" d="M23.6,114.1c0,4.5,0.3,9.1,1,13.6c0.2,1.5,1.5,2.7,3.1,2.7c0.2,0,0.5,0,0.7-0.1c1.6-0.4,2.6-1.9,2.4-3.4
		c-0.6-4.2-0.9-8.5-0.9-12.7c0-18,5.3-35.3,15.4-50c0.9-1.3,0.6-3.1-0.6-4.1c-0.6-0.5-1.4-0.7-2.3-0.7c-0.9,0.1-1.8,0.7-2.3,1.5
		c-5.8,8.6-10.2,17.9-12.9,27.9c-0.1,0.5-0.6,0.8-1.1,0.7l-15.5-3.6c-0.5-0.1-0.8-0.6-0.7-1.1c1.2-4.3,2.6-8.5,4.2-12.6
		c0.2-0.4,0.3-0.8,0.2-1.2c0-1.5-1.1-2.7-2.4-3c-0.2-0.1-0.5-0.1-0.7-0.1c-1.3,0-2.4,0.8-2.9,1.9C3.7,80.9,0.9,92.8,0,105
		c-0.1,1.5,0.9,2.9,2.4,3.2c0.2,0.1,0.4,0.1,0.6,0.1c1.6,0.1,3.1-1.4,3.2-3c0.3-4,0.8-8.1,1.6-12.1c0.1-0.5,0.6-0.8,1.1-0.7L24.4,96
		c0.5,0.1,0.8,0.6,0.7,1.1C24.1,102.7,23.6,108.4,23.6,114.1z"/>
	<g>
		<path class="st8" d="M149.5,134.4c0.4-0.2,0.6-0.7,0.6-1.1c0-0.2-0.1-0.3-0.1-0.5c0-0.2,0.1-0.5,0.3-0.6c0.2-0.3,0.5-0.6,0.9-0.6
			c0.2,0,0.4,0,0.5-0.1c0.7-0.2,1.1-1.1,1.9-1.2c0.2,0,0.4,0,0.5,0.1c0.1,0.1,0.1,0.2,0.2,0.3c0.1,0.6,0,1.2-0.4,1.7
			c-0.3,0.3-0.7,0.6-1,0.9c-0.2,0.2-0.3,0.5-0.5,0.7c-0.3,0.4-0.7,0.7-0.9,1.2c-0.2,0.4-0.3,0.8-0.5,1.2c-0.1,0.2-0.2,0.4-0.4,0.5
			c-0.2,0.1-0.4,0.1-0.6,0c-0.2-0.1-0.4-0.2-0.5-0.3C148.8,136.1,148.8,134.9,149.5,134.4z M135.8,85.4c0.1-0.2,0.2-0.4,0.4-0.4
			c0.2,0,0.3,0.2,0.4,0.3c0.1,0.2,0.2,0.3,0.3,0.5c0,0.1,0.1,0.1,0,0.2c-0.1,0.2-0.4,0.1-0.5,0.3c-0.1,0.1,0.1,0.3,0.2,0.3
			c0.1,0,0.3,0,0.4,0.1c0.2,0.1,0.2,0.4,0.1,0.6c0,0.2,0,0.4-0.1,0.6c0,0.1,0,0.1,0,0.2c0,0.1,0.1,0.1,0.2,0.1
			c0.3,0.1,0.6,0.2,0.9,0.3c0.1,0,0.2,0.1,0.2,0.2c0,0,0,0.1,0,0.1c-0.2,0.2-0.5,0.3-0.7,0.5c-0.1,0.1-0.2,0.3-0.4,0.4
			c-0.1,0.1-0.2,0.1-0.3,0.1c-0.5,0-1-0.1-1.5-0.4c-0.1-0.1-0.4-0.2-0.5-0.3c-0.1-0.2,0.1-0.5,0.2-0.7c0.1-0.2,0.4-0.4,0.7-0.3
			c0,0,0.1,0,0.1,0c0.1,0,0.1-0.1,0.1-0.1c0.1-0.3,0.2-0.6,0.1-0.8c-0.1-0.2-0.3-0.4-0.5-0.5c-0.2-0.1-0.3-0.4-0.3-0.6
			C135.4,85.8,135.6,85.6,135.8,85.4z M133.1,87.3c0.1,0,0.2-0.1,0.2-0.1c0.2-0.1,0.2-0.3,0.4-0.3c0,0,0,0,0.1,0
			c0.1,0,0.3,0,0.4-0.1c0.1-0.1,0.1-0.3,0.3-0.3c0.1,0,0.2,0,0.3,0c0.3,0.1,0.5,0.6,0.4,0.8c0,0.1-0.2,0.4-0.3,0.5
			c-0.1,0.1-0.2,0.1-0.3,0.1c-0.3,0.1-0.7,0.3-1.1,0.2c-0.2-0.1-0.5-0.1-0.6-0.3C132.8,87.5,132.9,87.4,133.1,87.3z M110.7,81.4
			c-0.4,0.4-0.6-0.3-0.8-0.4c-0.4-0.3-1,0-1.4-0.3c-0.2-0.1,0.1-0.3,0.1-0.4c0.2-0.1,0.4,0,0.5,0c0.4,0.1,0.9,0.2,1.3,0.5
			c0.1,0.1,0.2,0.2,0.3,0.3C110.7,81.1,110.7,81.3,110.7,81.4z M114,75.8c0.3,0.2,0.5,0.5,0.9,0.6c0.2,0.1,1.1,0.3,1,0.6
			c-0.1,0.3-1.3,0.1-1.5,0c-0.2-0.1-0.4-0.2-0.6-0.3c-0.2-0.1-0.4-0.2-0.7-0.4c-0.2-0.1-0.4-0.3-0.4-0.5
			C112.7,75.5,113.7,75.7,114,75.8z M118.6,81.9c-0.3,0.1-0.6-0.1-0.9-0.2c-0.2-0.1-0.4-0.3-0.6-0.2c-0.2,0.1-0.2,0.3-0.1,0.5
			c0,0.2,0.1,0.4,0,0.6c-0.1,0.2-0.4,0.2-0.6,0.1c-0.2-0.1-0.4-0.2-0.6-0.3c-0.1-0.1-0.3-0.1-0.3,0c-0.1,0.1,0,0.2,0.1,0.3
			c0.1,0.2,0.1,0.5,0,0.7c-0.4-0.1-0.7-0.3-0.9-0.7c-0.1-0.1-0.1-0.3-0.1-0.4c-0.2-0.4-0.6-0.6-1-0.8c-0.1-0.1-0.2-0.1-0.3-0.2
			c-0.1-0.1-0.1-0.3,0-0.4c0.1-0.1,0.2-0.1,0.3-0.1c0.3,0,0.6-0.1,1-0.1c0.1,0,0.3,0,0.4,0c0.2,0,0.3,0.1,0.4,0.2
			c0.2,0.1,0.5,0.2,0.7,0.2c0.2,0,0.5-0.2,0.5-0.4c0-0.3-0.2-0.5-0.4-0.6c-0.2-0.2-0.5-0.3-0.6-0.5c-0.1-0.2-0.1-0.4-0.2-0.6
			c-0.1-0.2-0.3-0.4-0.5-0.4c-0.1,0-0.2,0-0.3,0.1c-0.4,0.2-1,0.2-1.2-0.2c-0.1-0.1-0.1-0.2-0.2-0.3c-0.2-0.2-0.4-0.1-0.6,0
			c-0.2,0.1-0.5,0.1-0.7,0c-0.7-0.3-0.2-0.8,0.3-0.9c0.5,0,0.9,0.4,1.3,0.4c0.3,0,0.7-0.1,1,0.1c0.3,0.1,0.5,0.5,0.9,0.6
			c0.3,0.1,0.6,0,0.9,0c0.6,0.1,1,0.9,1.6,1.1c0.3,0.1,0.6,0.2,0.6,0.4c0,0.2-0.2,0.3-0.2,0.5c-0.1,0.4,0.6,0.6,0.8,1
			C119.1,81.6,118.9,81.9,118.6,81.9z M98.7,102.3c-0.2-0.1-0.4-0.1-0.6-0.2c-0.3-0.1-0.6-0.1-0.9-0.3c-0.3-0.1-0.5-0.4-0.6-0.6
			c0-0.1-0.1-0.3-0.1-0.4c-0.1-0.2-0.3-0.2-0.5-0.3c-0.4-0.1-0.9,0-1.3,0c-0.3,0-0.6-0.3-0.3-0.5c0.1-0.2,0.4-0.2,0.6-0.2
			c0.9-0.1,1.9,0.1,2.5,0.7c0.3,0.3,0.5,0.6,0.8,0.8c0.3,0.2,0.7,0.4,0.9,0.7c0.1,0.1,0.1,0.2,0,0.3C99,102.4,98.9,102.4,98.7,102.3
			z M101.8,103.9c-0.1,0-0.2,0-0.4,0c-0.5,0-1-0.1-1.4-0.2c-0.2-0.1-1.6-0.3-1.2-0.7c0.2-0.2,0.7-0.1,0.9-0.1c0.4,0,0.7,0,1.1,0.1
			c0.3,0,0.7,0.1,0.9,0.3c0.2,0.1,0.4,0.3,0.4,0.5C102.1,103.8,102,103.9,101.8,103.9z M116.8,90.9c-0.1,0-0.1,0-0.2,0
			c-0.3,0-0.5,0.1-0.8,0.1c-0.7,0-2.1-0.6-1.1-1.2c0.2-0.2,0.8-0.5,1.1-0.4c0.4,0.1,0.2,0.8,0.7,1c0.1,0.1,0.2,0.1,0.3,0.2
			C116.8,90.7,116.9,90.9,116.8,90.9z"/>
		<path class="st8" d="M160.5,107.8c-0.4-0.1-0.7-0.5-0.9-1c-0.2-0.4-0.3-0.9-0.5-1.2c-0.1-0.2-0.3-0.3-0.5-0.4
			c-0.2-0.1-0.5-0.2-0.7-0.1c-0.2,0.1-0.4,0.3-0.4,0.6c0,0.2,0.2,0.3,0.3,0.5c0.3,0.3,0.5,0.6,0.4,1c0,0.1-0.1,0.3,0,0.4
			c0,0.1,0.1,0.3,0.2,0.4c0.3,0.4,0.8,0.8,1.3,0.9c0.5,0.1,1.1,0,1.5-0.4c0.1-0.1,0.1-0.1,0.2-0.2c0.2,0,0.3,0.1,0.3,0.3
			c0,0.2-0.1,0.3-0.1,0.5c0,0.3,0.3,0.6,0.5,0.8c0,0,0.1,0,0.1,0.1c-0.1-0.7-0.2-1.3-0.2-1.9c0,0,0-0.1-0.1-0.1
			C161.5,107.6,160.9,107.9,160.5,107.8z"/>
		<path class="st8" d="M144.3,149.4c-0.1-0.3-0.3-0.6-0.5-0.8c-0.3-0.4-0.6-0.8-0.9-1.1c-0.2-0.2-0.5-0.3-0.8-0.5
			c-0.3-0.2-0.3-0.4-0.5-0.7c-0.3-0.4-1-0.6-1.3-1c-0.3-0.4-0.3-0.7-1-0.7c-0.3,0-0.8,0.1-0.8,0.4c-0.1,0.3,0.2,0.5,0.3,0.7
			c0.1,0.3,0.2,0.9-0.4,0.8c-0.4-0.1-0.5-0.4-0.8-0.5c-0.3-0.1-0.3,0-0.4-0.3c0-0.1,0.1-0.3,0.1-0.5c-0.2-0.4-0.7-0.4-1.2-0.3
			c-0.4,0.1-0.6,0.2-0.8,0.5c-0.2,0.3-0.3,0.4-0.7,0.3c-0.5-0.2-0.7-0.4-1.2-0.1c-0.2,0.1-0.4,0.3-0.5,0.5c-0.1,0.1-0.1,0.4-0.3,0.5
			c-0.4,0.2-0.8-0.2-1.1,0.2c-0.3,0.3-0.1,0.7-0.3,0.9c-0.8,1-2.8,0.7-3.3,2c-0.3,0.7,0.3,1.4,0.7,2c0.4,0.6,0.3,1.3,0.7,2
			c0.3,0.5,0.8,0.6,1.4,0.7c0.8,0.2,1.3-0.2,2-0.5c1-0.4,1.6-1.4,2.8-1.2c0.4,0.1,0.7,0.3,1.1,0.4c0.2,0.1,0.4,0.1,0.6,0
			c0.2,0,0.4-0.2,0.5-0.2c0.1,0,0.2,0,0.2,0C140.2,152.1,142.3,150.9,144.3,149.4z"/>
		<path class="st8" d="M121,156c-1.4-0.4-2.5-0.4-3.9-1.1c-0.3-0.2-0.5-0.7-0.7-0.8c-0.3-0.1-1.1,0.1-1.3,0c-0.9-0.6-0.5-0.4-1-1.1
			c-0.5-0.7,0.4-1.1-0.9-1.3c-0.7-0.2-1-0.1-1.2,0.7c-1.8,0.5-2.4-0.8-4-1c-0.7,0-1.3,0.4-1.9,0.4c-0.8,0-1.5-0.3-2.2-0.3
			c-1.5,0-2.2,1.2-3.7,1.1c-2.5-0.2-2.6-1.7-4.6-2.5c-0.2-0.1-1.2,0-1.9,0.1c4,2.7,8.4,4.8,13.3,6.1c5.4,1.5,10.8,1.8,16.1,1.3
			c0,0,0,0,0,0C122.4,156.9,121.8,156.3,121,156z"/>
		<path class="st8" d="M149.5,136.7c0.2,0.1,0.3,0.2,0.5,0.3c0.2,0.1,0.4,0.1,0.6,0c0.2-0.1,0.3-0.3,0.4-0.5
			c0.2-0.4,0.3-0.8,0.5-1.2c0.2-0.4,0.6-0.8,0.9-1.2c0.2-0.2,0.3-0.5,0.5-0.7c0.3-0.4,0.7-0.6,1-0.9c0.4-0.4,0.6-1.1,0.4-1.7
			c0-0.1-0.1-0.2-0.2-0.3c-0.1-0.1-0.3-0.2-0.5-0.1c-0.7,0.1-1.1,1.1-1.9,1.2c-0.2,0-0.4,0-0.5,0.1c-0.4,0.1-0.7,0.3-0.9,0.6
			c-0.1,0.2-0.3,0.4-0.3,0.6c0,0.2,0,0.3,0.1,0.5c0.1,0.5-0.2,0.9-0.6,1.1C148.8,134.9,148.8,136.1,149.5,136.7z"/>
		<path class="st8" d="M135.7,86.6c0.2,0.1,0.4,0.3,0.5,0.5c0.1,0.3,0,0.6-0.1,0.8c0,0.1-0.1,0.1-0.1,0.1c0,0-0.1,0-0.1,0
			c-0.2-0.1-0.5,0.1-0.7,0.3c-0.1,0.1-0.2,0.5-0.2,0.7c0.1,0.2,0.3,0.2,0.5,0.3c0.5,0.2,1,0.3,1.5,0.4c0.1,0,0.2,0,0.3-0.1
			c0.2-0.1,0.3-0.3,0.4-0.4c0.2-0.2,0.5-0.3,0.7-0.5c0,0,0-0.1,0-0.1c0-0.1-0.1-0.1-0.2-0.2c-0.3-0.1-0.6-0.2-0.9-0.3
			c-0.1,0-0.1,0-0.2-0.1c0,0,0-0.1,0-0.2c0-0.2,0-0.4,0.1-0.6c0-0.2,0-0.5-0.1-0.6c-0.1-0.1-0.3-0.1-0.4-0.1c-0.1,0-0.3-0.2-0.2-0.3
			c0.1-0.2,0.4-0.1,0.5-0.3c0-0.1,0-0.1,0-0.2c-0.1-0.2-0.2-0.3-0.3-0.5c-0.1-0.2-0.2-0.3-0.4-0.3c-0.2,0-0.3,0.2-0.4,0.4
			c-0.2,0.2-0.4,0.3-0.4,0.6C135.3,86.3,135.5,86.5,135.7,86.6z"/>
		<path class="st8" d="M133.6,88.1c0.4,0.1,0.8-0.1,1.1-0.2c0.1,0,0.2,0,0.3-0.1c0.1-0.1,0.2-0.4,0.3-0.5c0.1-0.3-0.1-0.8-0.4-0.8
			c-0.1,0-0.2,0-0.3,0c-0.2,0-0.2,0.2-0.3,0.3c-0.1,0.1-0.3,0.1-0.4,0.1c0,0,0,0-0.1,0c-0.2,0-0.3,0.3-0.4,0.3
			c-0.1,0-0.2,0.1-0.2,0.1c-0.2,0.1-0.3,0.2-0.1,0.5C133.1,88,133.3,88.1,133.6,88.1z"/>
		<path class="st8" d="M145.7,82.4c-0.1,0.1-0.2,0.2-0.2,0.3c-0.3,0.5-0.9,0.9-1.5,1c-0.5,0.1-1.1-0.1-1.6,0.2
			c-0.5,0.3-0.7,0.9-0.5,1.5s0.7,0.8,1.3,0.8c0.2,0,0.5-0.1,0.7,0c0.3,0.1,0.4,0.4,0.4,0.7c0,0.3,0,0.6,0.2,0.9
			c0,0.1,0.1,0.2,0.2,0.2c0.1,0,0.2,0,0.3,0c0.4-0.1,0.7-0.2,0.9-0.5c0.1-0.1,0.1-0.3,0.2-0.4c0.3-0.2,0.8,0,0.9-0.3
			c0-0.1,0-0.2,0-0.3c-0.1-0.3-0.2-0.5-0.3-0.8c-0.1-0.3,0-0.6,0.2-0.8c0.1-0.1,0.2-0.2,0.3-0.2c0.5-0.3,1-0.6,1.5-0.9
			c0.1-0.1,0.3-0.2,0.4-0.1c0.1,0.1,0.1,0.3,0,0.5c-0.3,0.5-1.1,0.8-1.1,1.4c0,0.4,0.4,0.7,0.8,0.9c0.5,0.2,1,0.3,1.5,0.2
			c0.3,0,0.6-0.1,0.8,0c0.2,0.1,0.4,0.5,0.1,0.7c-0.1,0.1-0.2,0.1-0.3,0.1c-0.6,0.1-1.1,0-1.7-0.2c-0.1,0-0.3-0.1-0.4-0.1
			c-0.1,0-0.3,0.1-0.3,0.2c0,0.2,0.2,0.4,0.1,0.6c-0.1,0.2-0.4,0.1-0.6,0c-0.2-0.1-0.5-0.3-0.6-0.1c-0.1,0.1-0.1,0.2-0.1,0.3
			c0,0.3,0,0.5-0.2,0.7c-0.2,0.2-0.5,0.3-0.8,0.3c-0.3,0-0.6-0.2-0.8-0.3c-0.1-0.1-0.2-0.1-0.4-0.1c-0.2,0-0.4,0.2-0.6,0.2
			c-0.7,0.2-1.3-0.5-2-0.6c-0.2,0-0.4,0-0.5,0.1c-0.5,0.1-1,0.2-1.5,0.3c-0.4,0.1-0.8,0.4-1.2,0.6c-0.9,0.6-2.1,0.5-3.1,0.6
			c-0.3,0-0.6,0.2-0.6,0.4c0,0.2,0.1,0.3,0.3,0.4c0.2,0.2,0.5,0.5,0.6,0.8c0.1,0.3,0.1,0.7-0.1,0.9c-0.2,0.3-0.5,0.4-0.8,0.4
			c-0.3,0-0.6-0.1-0.9-0.2c-0.1,0-0.2-0.1-0.3-0.1c-0.1-0.1-0.1-0.2-0.2-0.3c-0.1-0.2-0.3-0.3-0.5-0.2c-0.2,0-0.4,0.2-0.4,0.4
			c-0.1,0.2,0,0.4,0,0.6c0,0.6-0.6,1-0.8,1.6c0,0.1,0,0.2,0,0.3c0,0.1,0.1,0.2,0.2,0.3c0.3,0.2,0.5,0.5,0.8,0.7
			c0.1,0.1,0.3,0.3,0.5,0.3c0.3,0,0.5-0.2,0.8-0.2c0.3,0,0.6,0.3,0.9,0.3c0,0,0.1,0,0.1,0c0.1,0,0.1-0.1,0.1-0.2
			c0.2-0.7,0.8-1.3,1.5-1.5c0.3-0.1,0.7-0.1,0.9-0.4c0.2-0.3,0.3-0.8,0.6-0.9c0.5-0.2,1,0.6,1.6,0.4c0.2-0.1,0.4-0.3,0.6-0.4
			c0.3-0.1,0.6,0.2,0.8,0.4c0.2,0.3,0.5,0.6,0.5,0.9c0,0.3-0.1,0.7,0.1,0.9c0.3,0.4,0.9,0,1.3,0.3c0.2,0.2,0.1,0.6,0.1,0.9
			c-0.1,0.3-0.1,0.7,0.2,0.9c0.3,0.1,0.5-0.1,0.6-0.4c0.1-0.3,0-0.6-0.1-0.8c0-0.1,0.2,0,0.3,0c0.1,0,0.1-0.1,0.1-0.2
			c0-0.1-0.1-0.2-0.2-0.2c-0.4-0.3-0.8-0.7-1.2-1.1c-0.4-0.4-0.7-0.9-0.7-1.5c0-0.1,0.1-0.2,0.2-0.2c0,0,0.1,0,0.1,0.1
			c0.6,0.5,1.3,1.1,1.9,1.6c0.2,0.1,0.3,0.3,0.4,0.5c0.1,0.3,0,0.7,0,1c-0.1,0.3,0,0.7,0.3,0.9c0.2,0.1,0.4,0.1,0.5,0.1
			c0.2,0,0.4,0.1,0.4,0.3c-0.2,0.3-0.7,0.2-0.8,0.5c-0.2,0.5,0.6,0.6,0.9,0.7c0.6-0.4,0.7-1.2,0.3-1.7c-0.1-0.2-0.3-0.4-0.2-0.5
			c0.1-0.1,0.3-0.1,0.4-0.1c0.1,0,0.3,0.1,0.4,0.1c0.1,0,0.2-0.1,0.3-0.1c0.2,0,0.4,0.1,0.6,0.2c0.2,0.1,0.4,0.3,0.6,0.3
			c0.2,0,0.5-0.1,0.6-0.3c0-0.2-0.1-0.3-0.1-0.5c-0.2-0.6,0.3-1.2,0.8-1.7c0.3-0.2,0.6-0.5,0.9-0.5c0.3,0,0.7,0.3,0.6,0.7
			c0,0.1-0.1,0.2-0.1,0.3c-0.1,0.2,0.1,0.5,0.4,0.5c0.2,0.1,0.5,0,0.7,0c-0.1-0.3-0.2-0.8,0.1-1c0.1,0,0.2,0,0.3,0
			c0.3,0,0.5-0.2,0.7-0.3c0.2-0.1,0.5-0.1,0.7,0c0.1,0.3-0.1,0.7-0.4,0.7c-0.2,0-0.4-0.1-0.6,0c-0.2,0.1-0.2,0.4-0.1,0.5
			c0.1,0.2,0.3,0.3,0.4,0.4c0.6,0.4,1,1,1.3,1.6c0.1,0.1,0.1,0.3,0.1,0.4c-0.1,0.3-0.4,0.3-0.7,0.3c-0.4,0-0.8,0-1.1-0.3
			c-0.1-0.1-0.1-0.2-0.2-0.3c-0.1-0.1-0.2-0.2-0.4-0.2c-0.6-0.2-1.2-0.4-1.7-0.2c-0.2,0.1-0.3,0.2-0.5,0.1c-0.2,0-0.3-0.2-0.2-0.4
			c-0.3,0-0.6,0.1-0.8,0.4c-0.1,0.1-0.1,0.1-0.2,0.2c-0.1,0-0.2,0-0.3-0.1c-0.2-0.1-0.3-0.2-0.5-0.2c-0.2,0-0.4,0.1-0.4,0.3
			c0,0.2,0.2,0.4,0.2,0.6c0,0.1,0,0.3,0,0.4c0,0.6,0.6,1,1.1,0.9c0.3-0.1,0.6-0.3,0.8-0.1c0.1,0.1,0.2,0.2,0.3,0.3
			c0.2,0.2,0.6,0.1,0.9,0.1c0.3-0.1,0.7,0,0.8,0.3c0,0.1,0,0.3,0,0.4c-0.1,0.6-0.2,1.1-0.4,1.7c0,0.1,0,0.2-0.1,0.2
			c-0.1,0.1-0.1,0.1-0.2,0.1c-0.3,0.1-0.6,0.2-0.9,0.1c-0.5,0-0.9-0.3-1.4-0.3c-0.3,0-0.5,0-0.8,0c-1.1-0.1-1.7-1.3-2.8-1.7
			c-0.2-0.1-0.5-0.1-0.6,0c-0.1,0.1-0.2,0.3-0.3,0.4c-0.2,0.4-0.5,0.7-0.9,0.7c-0.6,0-0.9-0.7-1.2-1.2c-0.3-0.4-0.7-0.7-1.2-0.8
			c-0.3-0.1-0.7-0.1-0.8-0.4c0-0.1,0-0.2,0-0.3c0.1-0.3,0.2-0.5,0.2-0.8c0-0.3,0-0.6-0.2-0.8c-0.4-0.4-1.1,0.1-1.7,0
			c-0.2-0.1-0.4-0.2-0.6-0.3c-0.5-0.3-1.1-0.3-1.7-0.1c-0.6,0.1-1.1,0.3-1.7,0.3c-0.6,0-1.2-0.4-1.8-0.4c-0.3,0-0.6,0.1-0.9,0.3
			c-0.3,0.1-0.6,0.2-0.8,0.4c-0.1,0.1-0.2,0.1-0.3,0.2c-0.4,0.4-0.2,1.2-0.6,1.5c-0.1,0.1-0.3,0.1-0.4,0.2c-0.7,0.2-1.4,0.5-1.9,1
			c-0.6,0.6-1,1.4-1.7,1.8c-0.2,0.4-0.4,0.8-0.3,1.3c0,0.2,0.1,0.4,0.1,0.7c0,0.4-0.2,0.7-0.5,1c-0.3,0.3-0.6,0.5-0.8,0.9
			c-0.3,0.5-0.3,1.1-0.2,1.7c0.1,0.6,0.4,1.1,0.7,1.5c0.2,0.3,0.4,0.5,0.5,0.8c0.1,0.3,0.2,0.6,0.3,0.8c0.2,0.4,0.5,0.7,0.7,1
			c0.3,0.4,0.7,0.8,1.3,0.9c0.3,0.1,0.7,0,1,0c0.8,0,1.6,0.6,2.4,0.5c0.4,0,0.7-0.2,1.1-0.2c0.5-0.1,1.1,0,1.5,0.3
			c0.1,0,0.1,0.1,0.2,0.2c0.1,0.2,0,0.3,0.1,0.5c0.1,0.4,0.6,0.4,1,0.5c0.4,0.1,0.8,0.4,0.9,0.8c0.3,0.8-0.3,1.2-0.4,1.9
			c-0.1,0.5-0.1,0.9-0.1,1.3c0,0.4,0,0.7,0.1,1.1c0.2,0.4,0.5,0.7,0.5,1.2c0,0.2-0.1,0.4-0.1,0.5c0,0.2,0.1,0.3,0.1,0.5
			c0.2,0.7,0.1,1.5-0.2,2.1c-0.3,0.7-0.8,1.2-0.8,2c0,0.9-0.2,1.9-0.3,2.8c0,0.5-0.1,0.9,0,1.4c0.1,0.5,0.3,1.1,0.3,1.6
			c0,0.5-0.2,1.1,0.1,1.5c0.1,0.1,0.2,0.3,0.3,0.4c0.3,0.4,0.4,0.9,0.3,1.4c-0.1,0.6-0.6,1.4,0,1.8c0.3,0.2,0.7,0.2,1.1,0
			c0.1,0,0.2-0.1,0.3-0.1c0.4-0.1,0.6,0.5,1.1,0.5c0.1,0,0.2,0,0.3,0c1-0.3,2-0.9,2.9-1.5c0.5-0.3,1-0.7,1.5-1
			c0.1-0.1,0.2-0.2,0.3-0.3c0.2-0.2,0.2-0.5,0.3-0.7c0.1-0.1,0.2-0.3,0.4-0.3c0.3-0.2,0.6-0.3,0.9-0.5c0.3-0.2,0.5-0.4,0.6-0.8
			c0-0.2,0-0.3,0-0.5c0-0.6,0.4-1.1,0.8-1.6c0.3-0.3,0.6-0.5,1-0.7c0.3-0.2,0.7-0.4,1-0.7c0.4-0.4,0.7-1,0.7-1.6
			c0-1.2,0.4-2.3,0.7-3.4c0.1-0.3,0.1-0.6,0.3-0.9c0.5-1.2,1.7-1.8,2.8-2.4c1.7-1,3.3-2.3,4.6-3.8c0.2-0.3,0.5-0.7,0.3-1
			c-0.2-0.4-0.7-0.3-1.1-0.2c-1,0.2-2,0.3-3,0.1c-0.2,0-0.4-0.1-0.6-0.3c-0.2-0.2-0.1-0.6-0.1-0.8c0-0.6-0.5-1-0.8-1.5
			c-0.4-0.7-0.7-1.5-0.6-2.3c0.1-1.3-0.6-2.7-0.9-3.9c-0.1-0.4-0.1-0.7-0.2-1.1c-0.2-0.4-0.4-0.8-0.5-1.2c-0.1-0.2-0.1-0.4,0-0.6
			c0.1-0.2,0.3-0.3,0.5-0.2c0.2,0.1,0.2,0.5,0.2,0.7c0,0.1,0,0.1,0.1,0.2c0.2,0.1,0.4-0.4,0.6-0.3c0,1.1,0.2,2.2,0.7,3.2
			c0.2,0.5,0.5,1,0.5,1.5c0,0.2-0.1,0.5,0,0.7c0.1,0.3,0.3,0.5,0.5,0.7c0.7,0.7,0.8,1.8,0.7,2.8c0,0.2,0,0.4,0,0.5
			c0.1,0.2,0.2,0.2,0.4,0.3c0.6,0.3,1.2,0.3,1.8,0c1.1-0.5,2-0.9,3.2-1c0.3,0,0.6-0.1,0.8-0.2c0.4-0.3,0.6-0.8,1-1.2
			c0.2-0.2,0.5-0.3,0.8-0.4c0-0.5-0.1-1-0.1-1.5c0,0-0.1,0-0.1-0.1c-0.3-0.2-0.6-0.5-0.5-0.8c0-0.2,0.1-0.3,0.1-0.5
			c0-0.2-0.1-0.4-0.3-0.3c-0.1,0-0.1,0.1-0.2,0.2c-0.3,0.4-0.9,0.6-1.5,0.4c-0.5-0.1-0.9-0.5-1.3-0.9c-0.1-0.1-0.2-0.2-0.2-0.4
			c0-0.1,0-0.3,0-0.4c0-0.4-0.2-0.8-0.4-1c-0.1-0.1-0.3-0.3-0.3-0.5c0-0.3,0.1-0.5,0.4-0.6c0.2-0.1,0.5,0,0.7,0.1
			c0.2,0.1,0.3,0.2,0.5,0.4c0.3,0.4,0.4,0.8,0.5,1.2c0.2,0.4,0.5,0.8,0.9,1c0.4,0.1,1-0.1,1.3,0.2c0,0,0,0.1,0.1,0.1
			c-1.5-10.1-6.7-19.4-14.4-26.2c-0.4,0-0.9,0.3-1.3,0.4C146,82.3,145.9,82.3,145.7,82.4z"/>
		<path class="st8" d="M117.2,73.2c-0.1,0.3-0.6,0.5-0.5,0.8c0.1,0.2,0.3,0.3,0.4,0.3c0.2,0.1,0.4,0.2,0.6,0.2
			c0.1,0,0.1,0.1,0.2,0.1c0.1,0.1,0.2,0.4,0,0.5c-0.1,0.1-0.2,0.1-0.3,0.1c-0.3,0-0.6,0-0.9,0c-0.5,0,0,0.3,0,0.5
			c0.1,0.3-0.3,0.4-0.3,0.7c0,0.3,0.4,0.5,0.7,0.5c1,0.2,2.1,0,3.1-0.2c0.6-0.2,1.2-0.4,1.8-0.4c0,0,0.1,0,0.1,0
			c0.1,0.5,0.2,1,0,1.5c-0.2,0.8-0.8,1.5-1.6,2c-0.4,0.3-1,0.5-1.1,1c0,0.3,0.2,0.7,0.2,1c0.1,0.3,0,0.6,0,1c0.1,1,1.4,1.8,2.5,1.5
			c0,0,0.5,0.1,0.9-0.3c0.4-0.4,0.7-0.9,1.1-1.2c1.4-1,3.6,0,5.3-0.7c0.3-0.1,0.5-0.3,0.8-0.4c0.6-0.2,1.3-0.2,2-0.2
			c1.3,0.1,2.6,0.4,3.8,0.3c1.8-0.1,0.3-1.4-0.5-1.9c-0.2-0.1-0.3-0.2-0.4-0.4c0-0.2,0.3-0.4,0.6-0.3c0.3,0.1,0.4,0.3,0.7,0.4
			c0.5,0.3,1.2,0.3,1.8,0c0.5-0.3,0.9,0.1,1.2-0.4c0.2-0.2,1.1-0.1,1.4-0.3c0.2-0.1,4.8,1.5,5,1.5c0.1,0,0.1,0,0.2,0
			c-4.7-3.8-10.2-6.7-16.4-8.4c-5.1-1.4-10.3-1.8-15.3-1.4C114.6,72,117.6,71.9,117.2,73.2z"/>
		<path class="st8" d="M113.1,76.4c0.2,0.1,0.4,0.2,0.7,0.4c0.2,0.1,0.4,0.2,0.6,0.3c0.2,0.1,1.4,0.2,1.5,0c0.1-0.3-0.8-0.5-1-0.6
			c-0.4-0.1-0.6-0.4-0.9-0.6c-0.3-0.2-1.3-0.4-1.3,0.2C112.7,76.2,112.9,76.3,113.1,76.4z"/>
		<path class="st8" d="M118.3,80.3c0-0.2,0.2-0.3,0.2-0.5c0-0.3-0.4-0.3-0.6-0.4c-0.6-0.2-0.9-1-1.6-1.1c-0.3,0-0.6,0.1-0.9,0
			c-0.4-0.1-0.6-0.5-0.9-0.6c-0.3-0.1-0.7,0-1-0.1c-0.5,0-0.9-0.4-1.3-0.4c-0.5,0-1,0.6-0.3,0.9c0.2,0.1,0.5,0,0.7,0
			c0.2-0.1,0.5-0.1,0.6,0c0.1,0.1,0.1,0.2,0.2,0.3c0.2,0.4,0.8,0.4,1.2,0.2c0.1,0,0.2-0.1,0.3-0.1c0.2,0,0.4,0.2,0.5,0.4
			c0.1,0.2,0.1,0.4,0.2,0.6c0.1,0.2,0.4,0.4,0.6,0.5c0.2,0.2,0.4,0.4,0.4,0.6c0,0.2-0.3,0.4-0.5,0.4c-0.2,0-0.5,0-0.7-0.2
			c-0.1-0.1-0.3-0.2-0.4-0.2c-0.1,0-0.3,0-0.4,0c-0.3,0-0.6,0.1-1,0.1c-0.1,0-0.2,0-0.3,0.1c-0.1,0.1,0,0.3,0,0.4
			c0.1,0.1,0.2,0.2,0.3,0.2c0.4,0.2,0.8,0.4,1,0.8c0.1,0.1,0.1,0.3,0.1,0.4c0.1,0.3,0.5,0.6,0.9,0.7c0.1-0.2,0.1-0.5,0-0.7
			c0-0.1-0.1-0.2-0.1-0.3c0.1-0.1,0.2-0.1,0.3,0c0.2,0.1,0.4,0.2,0.6,0.3c0.2,0.1,0.5,0.1,0.6-0.1c0.1-0.2,0.1-0.4,0-0.6
			c0-0.2,0-0.4,0.1-0.5c0.2-0.1,0.4,0.1,0.6,0.2c0.3,0.2,0.6,0.3,0.9,0.2c0.3-0.1,0.6-0.4,0.5-0.6C118.9,80.9,118.2,80.7,118.3,80.3
			z"/>
		<path class="st8" d="M110.4,80.7c-0.4-0.2-0.8-0.4-1.3-0.5c-0.2,0-0.4-0.1-0.5,0c-0.1,0.1-0.3,0.3-0.1,0.4c0.4,0.3,1,0,1.4,0.3
			c0.2,0.2,0.4,0.8,0.8,0.4c0.1-0.1,0.1-0.2,0-0.4C110.6,80.9,110.5,80.8,110.4,80.7z"/>
		<path class="st8" d="M116.5,90.5c-0.4-0.2-0.3-0.8-0.7-1c-0.3-0.1-0.9,0.2-1.1,0.4c-0.9,0.6,0.4,1.2,1.1,1.2
			c0.3,0,0.5-0.1,0.8-0.1c0.1,0,0.1,0,0.2,0c0.1-0.1,0.1-0.2,0-0.3C116.7,90.6,116.6,90.5,116.5,90.5z"/>
		<path class="st8" d="M80.9,94.4c0.8-0.5,1.1-0.5,1.2-0.1c0,0.3,0.1,0.5,0.2,0.8c0.3,0.7,0.9,1.3,1.1,2.1c0.1,0.5,0.2,1.1,0.2,1.6
			c0,0.2,0,0.3,0,0.5c0.1,0.3,0.3,0.5,0.5,0.8c0.3,0.4,0.6,0.8,1,1.1c0.4,0.4,0.8,0.6,1.3,0.7c0.3,0,0.7-0.1,1,0
			c0.5,0.1,0.8,0.5,1,0.9c0.1,0.2,0.2,0.4,0.4,0.5c0.2,0.1,0.3,0.1,0.5,0.2c0.8,0.2,1.2,0.9,1.6,1.6c0.2,0.3,0.3,0.5,0.3,0.8
			c0,0.1,0,0.2,0.1,0.3c0.1,0.1,0.1,0.2,0.2,0.3c0.2,0.2,0.5,0.5,0.7,0.7c0.1,0.1,0.2,0.2,0.4,0.3c0.2,0.1,0.3,0.2,0.5,0.2
			c0.3,0.1,0.6,0.1,0.9,0c0.2,0,0.4-0.1,0.6,0c0.3,0.1,0.5,0.4,0.5,0.7c0.2,1.7-1,2-1.9,3.2c-0.9,1.3-1.1,2.9-0.8,4.5
			c0.6,2.9,4.4,5.6,4.1,8.4c-0.1,0.7-0.4,1.4-0.2,2c0.3,0.8-0.1,1.7-0.1,2.5c0,0.4,0,0.9,0,1.3c0,1.4-0.7,2.7-0.7,4.1
			c0,0.6,0.1,1.2,0.4,1.8c0.1,0.2,0.2,0.3,0.2,0.5c0,0.2-0.1,0.4-0.2,0.6c-0.1,0.4,0.2,0.8,0,1.1c-0.2,0.3-0.6,0.4-0.5,0.7
			c0,0.2,0.1,0.3,0.3,0.4c0.3,0.3,0.6,0.7,0.7,1.2c0.2,0.4,0.3,0.9,0.5,1.3c0.2,0.4,0.6,0.8,1.1,0.9c0.1,0,0.2,0,0.3,0
			c0.3-0.2,0.3-0.6,0.3-0.9c0-0.3,0.1-0.6,0.3-0.8c0.2-0.2,0.5-0.4,0.6-0.7c0.1-0.5-0.4-0.9-0.3-1.3c-0.1-0.2-0.1-0.5,0-0.7
			c0.2-0.3,0.5-0.5,0.5-0.8c0-0.3-0.3-0.7-0.2-1c0-0.1,0.1-0.2,0.2-0.2c0.1,0,0.1,0,0.2,0c0.2,0.1,0.4,0.2,0.6,0.1
			c0.2-0.1,0.2-0.5,0.3-0.7c0.1-0.2,0.4-0.2,0.6-0.1c0.2,0,0.4,0.1,0.7,0.1c0.3,0,0.5-0.1,0.7-0.3c0.1-0.1,0.2-0.3,0.2-0.5
			c0-0.1-0.1-0.3-0.1-0.4c-0.1-0.3-0.2-0.5-0.3-0.8c0-0.1-0.1-0.3,0-0.4c0.1-0.2,0.5-0.2,0.7,0c0.3,0.1,0.6,0.3,0.8,0.2
			c0.2,0,0.3-0.1,0.5-0.2c0.2-0.1,0.5-0.2,0.7-0.4c0.5-0.6,1.5-0.9,2.1-1.5c0.6-0.7,0.1-2,0.8-2.5c0.1-0.1,0.2-0.1,0.3-0.1
			c1.1-0.2,2.1,0.2,3.1-0.4c1.2-0.7,1.4-2.3,1.7-3.4c0.1-0.4,0.1-0.8,0.4-1.1c0.1-0.1,0.3-0.2,0.4-0.3c0.3-0.2,0.5-0.6,0.8-0.9
			c0.2-0.3,0.3-0.5,0.6-0.7c0.2-0.1,0.4-0.1,0.6-0.2c0.5-0.2,0.8-0.9,0.5-1.4c0,0,0-0.1-0.1-0.1c-0.1-0.1-0.2-0.1-0.2-0.1
			c-0.4,0-0.8,0-1.2,0c-0.1,0-0.2,0-0.3-0.1c-0.1-0.1-0.2-0.2-0.2-0.4c-0.3-0.8-1-1.3-1.7-1.9c-0.2-0.1-0.3-0.2-0.5-0.2
			c-0.2,0-0.4,0.1-0.6,0.1c-0.2,0.1-0.5,0.1-0.6-0.1c-0.1-0.1-0.1-0.3-0.1-0.5c0-0.1,0-0.1,0-0.2c0-0.1-0.1-0.2-0.2-0.3
			c-0.3-0.2-0.8-0.2-1.1-0.1c-0.1,0.1-0.2,0.2-0.4,0.2c-0.1,0.1-0.2-0.1-0.3-0.1c-0.1,0-0.3-0.1-0.4-0.2c-0.1-0.1-0.1-0.3,0-0.4
			c0.1-0.1,0.3,0,0.4-0.1c0.2-0.1,0.1-0.4-0.1-0.5c-0.2-0.1-0.4-0.1-0.6,0s-0.3,0.2-0.5,0.3c-0.1,0-0.1,0-0.2,0
			c-0.2,0-0.3-0.2-0.3-0.4c0-0.2,0.1-0.3,0.3-0.4c0.1-0.1,0.3-0.2,0.4-0.3c0.2-0.2,0.2-0.6,0.1-0.9c-0.2-1-0.8-1.8-1.7-2.4
			c-0.2-0.1-0.3-0.2-0.5-0.3c-0.2-0.1-0.3-0.3-0.5-0.5c-0.4-0.3-0.9-0.6-1.2-1c-0.3-0.3-0.6-0.7-0.8-1c-0.1-0.1-0.2-0.2-0.3-0.3
			c-0.4-0.3-0.9-0.2-1.3-0.3c-0.3-0.1-0.6-0.4-0.8-0.6c-0.2-0.3-0.5-0.5-0.8-0.7c-0.3-0.1-0.8-0.1-0.9,0.2c-0.1,0.2-0.1,0.4-0.1,0.6
			c0,0.2,0,0.5-0.2,0.6c-0.3,0.1-0.6-0.1-0.7-0.4c0-0.3,0.1-0.6,0.3-0.8c0.1-0.1,0.2-0.2,0.2-0.3c0-0.1,0-0.3-0.1-0.3
			c-0.1,0-0.1,0-0.2,0c-0.4,0-0.8,0.3-1.1,0.5c-0.4,0.3-0.9,0.6-1.4,0.7c-0.2,0-0.3,0.1-0.5,0c-0.3-0.1-0.3-0.4-0.5-0.6
			c-0.2-0.1-0.5-0.1-0.7-0.1c-0.6,0-1.1-0.2-1.5-0.6c-0.3-0.4-0.4-1-0.2-1.5c0.1-0.2,0.3-0.4,0.4-0.6c0.1-0.2,0.2-0.5,0-0.7
			c-0.3-0.5-1.2-0.3-1.6-0.7c-0.3-0.3-0.2-0.7-0.1-1c0.2-0.3,0.5-0.5,0.8-0.8c0.1-0.1,0.2-0.2,0.2-0.3c0.1-0.3-0.3-0.5-0.6-0.6
			c-0.3-0.1-0.7-0.1-0.9,0.1c-0.1,0.1-0.1,0.2-0.2,0.3c-0.1,0.2-0.4,0.3-0.6,0.4c-0.8,0.2-1.8-0.1-2.3-0.8c-0.2-0.2-0.4-0.5-0.5-0.9
			c-0.1-0.4,0-0.8,0.1-1.2c0.1-0.4,0.3-0.9,0.5-1.3c0.3-0.6,0.7-1.1,1.3-1.5c0.6-0.4,1.3-0.6,2-0.5c0.3,0.1,0.6,0.3,0.9,0.4
			c0.4,0.2,0.9,0.4,1.4,0.2c0.2-0.1,0.4-0.2,0.6-0.3c0.4-0.1,0.9,0.1,1.2,0.4c0.5,0.4,1.1,0.8,1.3,1.5c0.1,0.4-0.1,0.8,0,1.2
			c0,0.1,0.1,0.3,0.2,0.3c0.2,0,0.3-0.1,0.4-0.2c0.6-0.7,0.4-1.7,0.7-2.6c0-0.1,0.1-0.3,0.2-0.4c0.1-0.1,0.2-0.1,0.3-0.1
			c0.4,0,0.7-0.1,1.1-0.1c0.3,0,0.6-0.1,0.9-0.2c0.3-0.1,0.5-0.3,0.7-0.5c0.4-0.4,0.8-0.9,0.9-1.5c0-0.1,0-0.2,0.1-0.3
			c0.1-0.1,0.2-0.1,0.2-0.1c0.6-0.2,1.2-0.1,1.7-0.4c0.5-0.4,1.2-0.7,1.8-0.8c0.3-0.1,0.6-0.1,0.8-0.2c0.2-0.1,0.3-0.2,0.4-0.3
			c0.5-0.3,1.2-0.5,1.8-0.4c0.3,0,0.6,0.2,0.7,0.5c0.4,0.2,0.9,0.2,1.3,0.2c0.4,0,0.8,0,1.2-0.1c0.3,0,0.6-0.1,0.6-0.3
			c0-0.1-0.1-0.3-0.2-0.4c-0.1-0.1-0.3-0.1-0.5-0.2c-0.2-0.1-0.5-0.1-0.7-0.2c-0.1,0-0.3-0.1-0.4-0.1c-0.1-0.1-0.2-0.2-0.2-0.4
			c0.1-0.2,0.3-0.2,0.4-0.4c0.1-0.2-0.1-0.5-0.3-0.5c-0.2,0-0.5,0-0.7,0.1c-0.2,0.1-0.4,0.2-0.7,0.2c-0.2,0-0.5-0.2-0.5-0.4
			c0-0.2,0.3-0.3,0.5-0.4c1.3-0.3,2.7-0.1,4,0.2c0.6,0.1,1.3,0.3,2,0.2c0.7,0,1.3-0.3,1.7-0.7c0.1-0.1,0.2-0.4,0-0.5
			c0,0-0.1,0-0.2,0c-0.6-0.1-1.2,0-1.7-0.2c0.6,0.2,1.9-1.6,0.7-2.8c-0.4-0.2-0.6-0.3-1.1-0.2c-0.5,0.1-1.1-0.1-1.3-0.5
			c-0.1-0.3-0.1-0.5-0.2-0.8c-0.2-0.7-1.3-1-2.1-0.7c-0.7,0.3-1.2,0.9-1.8,1.4c-1.1,1-2.4,1.9-3.9,2.4c-0.2,0.1-0.3,0.1-0.5,0.1
			c-0.6-0.1-0.3-2.1-0.6-2.6c-0.4-0.6-2.6-0.8-1.7-2.2c0.1-0.2,0.3-0.3,0.5-0.4c0.5-0.3,1.1-0.6,1.7-0.7c0.4,0,1.2,0.2,1.3-0.3
			c0-0.1,0.2-0.2,0.3-0.2c0.3,0,0.7,0.1,1,0.2c0.1,0,0.2,0,0.3,0c0.3-0.1,0-0.4,0.3-0.6c0.2-0.1,0.4,0,0.6,0
			c0.7,0.1,1.5,0.3,2.2,0.4c0.3,0.1,0.6,0.1,0.9,0c0.3-0.1,0.6-0.3,0.6-0.6c0-0.3-0.3-0.6-0.7-0.6c-0.3-0.1-0.7,0-1,0.2
			c-0.3,0.1-0.8,0.3-1.1,0c-0.2-0.2,0.1-0.5-0.2-0.6c-0.1-0.1-0.2,0-0.3-0.1c-0.1-0.1-0.1-0.3,0-0.4c0.1-0.1,0.4-0.1,0.4-0.3
			c0-0.1-0.1-0.2-0.3-0.2c-0.5-0.1-1-0.1-1.5,0c0,0.3,0.2,0.6,0.1,0.8c-0.1,0.1-0.1,0.1-0.2,0.1c-0.3,0.1-0.7,0.3-1,0.2
			c-0.2,0-0.1-0.9-0.3-0.9c-0.6-0.2-1.2-1.6-0.3-3c0.6-1.1,2.3-1.9,1.8-2.8c0,0,0,0,0,0c-12.5,2.9-23.3,11.1-29.1,22.8
			C79.4,94.6,80.1,94.6,80.9,94.4C80.8,94.4,80.8,94.4,80.9,94.4z"/>
		<path class="st8" d="M99.1,102.3c0.1-0.1,0-0.2,0-0.3c-0.2-0.3-0.6-0.5-0.9-0.7c-0.3-0.2-0.5-0.6-0.8-0.8
			c-0.6-0.6-1.6-0.8-2.5-0.7c-0.2,0-0.5,0.1-0.6,0.2c-0.2,0.3,0.1,0.5,0.3,0.5c0.4,0,0.8-0.1,1.3,0c0.2,0,0.4,0.1,0.5,0.3
			c0.1,0.1,0.1,0.3,0.1,0.4c0.1,0.3,0.3,0.5,0.6,0.6c0.3,0.1,0.6,0.2,0.9,0.3c0.2,0.1,0.4,0.1,0.6,0.2
			C98.9,102.4,99,102.4,99.1,102.3z"/>
		<path class="st8" d="M101.7,103.2c-0.3-0.1-0.6-0.2-0.9-0.3c-0.4,0-0.7-0.1-1.1-0.1c-0.2,0-0.7-0.1-0.9,0.1
			c-0.4,0.4,1,0.7,1.2,0.7c0.5,0.1,1,0.2,1.4,0.2c0.1,0,0.3,0,0.4,0c0.1,0,0.2-0.1,0.3-0.2C102.2,103.5,101.9,103.3,101.7,103.2z"/>
	</g>
</g>
<g>
	<path class="st7" d="M284.3,95.4c-3.9,0-6.9-0.8-9.1-2.3c-2.2-1.5-3.7-3.6-4.6-6.2c-0.9-2.6-1.3-5.7-1.3-9.1V59
		c0-3.6,0.4-6.7,1.3-9.4c0.9-2.6,2.4-4.7,4.6-6.1c2.2-1.4,5.2-2.1,9.1-2.1c3.6,0,6.5,0.6,8.6,1.9c2.1,1.2,3.5,3,4.4,5.3
		c0.9,2.3,1.3,5,1.3,8V61h-9.2v-4.6c0-1.5-0.1-2.8-0.2-4c-0.2-1.2-0.6-2.2-1.2-2.9c-0.7-0.7-1.8-1.1-3.5-1.1c-1.7,0-2.9,0.4-3.6,1.1
		c-0.8,0.8-1.2,1.8-1.5,3.1c-0.2,1.3-0.3,2.7-0.3,4.3v22.9c0,1.9,0.2,3.5,0.5,4.7c0.3,1.2,0.9,2.2,1.7,2.8c0.8,0.6,1.9,0.9,3.3,0.9
		c1.6,0,2.7-0.4,3.4-1.1c0.7-0.8,1.1-1.8,1.3-3c0.2-1.3,0.3-2.7,0.3-4.2v-4.8h9.2v4.2c0,3.1-0.4,5.9-1.2,8.3
		c-0.8,2.4-2.3,4.3-4.3,5.7C291,94.8,288.1,95.4,284.3,95.4z"/>
	<path class="st7" d="M319.5,95.4c-3.7,0-6.7-0.7-8.9-2.1c-2.2-1.4-3.8-3.4-4.8-6c-1-2.6-1.4-5.7-1.4-9.2V58.4
		c0-3.6,0.5-6.6,1.4-9.2c1-2.5,2.5-4.5,4.8-5.8c2.2-1.3,5.2-2,8.9-2c3.8,0,6.8,0.7,9,2c2.2,1.3,3.8,3.3,4.8,5.8
		c1,2.5,1.5,5.6,1.5,9.2v19.8c0,3.5-0.5,6.6-1.5,9.2c-1,2.6-2.6,4.6-4.8,6C326.4,94.7,323.4,95.4,319.5,95.4z M319.5,88.3
		c1.6,0,2.8-0.3,3.5-1c0.8-0.7,1.3-1.6,1.5-2.9c0.3-1.2,0.4-2.5,0.4-4V56.2c0-1.5-0.1-2.8-0.4-4c-0.3-1.2-0.8-2.1-1.5-2.8
		c-0.8-0.7-1.9-1-3.5-1c-1.5,0-2.7,0.3-3.5,1c-0.8,0.7-1.3,1.6-1.6,2.8c-0.3,1.2-0.4,2.5-0.4,4v24.3c0,1.4,0.1,2.8,0.4,4
		c0.2,1.2,0.7,2.2,1.5,2.9C316.8,88,318,88.3,319.5,88.3z"/>
	<path class="st7" d="M348.4,94.7L337.8,42h8.5l7,37.3l6.5-37.3h8.7l-10.6,52.8H348.4z"/>
	<path class="st7" d="M374.4,94.7V42h9.5v52.8H374.4z"/>
	<path class="st7" d="M390.5,94.7V42H403c4.3,0,7.7,0.6,10.1,1.8c2.4,1.2,4.1,3,5.1,5.4c1,2.4,1.5,5.5,1.5,9.2v19.3
		c0,3.8-0.5,7-1.5,9.5c-1,2.5-2.7,4.4-5.1,5.7c-2.4,1.2-5.6,1.9-9.7,1.9H390.5z M400.2,88h2.9c2.2,0,3.8-0.4,4.8-1.2
		c1-0.8,1.5-1.9,1.8-3.4c0.2-1.5,0.3-3.3,0.3-5.5V57.7c0-2.1-0.2-3.8-0.5-5.1c-0.3-1.3-0.9-2.3-1.9-2.9c-1-0.6-2.5-0.9-4.6-0.9h-2.8
		V88z"/>
	<path class="st7" d="M455.5,94.7V51.9c-0.3,0.1-0.8,0.3-1.5,0.6c-0.8,0.3-1.6,0.5-2.5,0.7c-0.9,0.2-1.7,0.5-2.5,0.7
		c-0.8,0.2-1.3,0.4-1.6,0.5v-6.7c0.6-0.2,1.4-0.5,2.3-0.9c0.9-0.4,1.9-0.8,2.9-1.3c1-0.5,2-1.1,2.9-1.7c0.9-0.6,1.6-1.2,2.2-1.9h6.9
		v52.8H455.5z"/>
	<path class="st7" d="M485.2,95.4c-3,0-5.5-0.5-7.5-1.6c-2-1-3.4-2.6-4.3-4.6c-0.9-2-1.4-4.4-1.4-7.3c0-0.1,0-0.2,0-0.3
		c0-0.1,0-0.3,0-0.4h8.6c0,2.3,0.3,4.1,0.9,5.3c0.6,1.2,1.8,1.8,3.7,1.8c1.2,0,2.1-0.3,2.7-1c0.7-0.7,1.1-1.8,1.4-3.5
		c0.3-1.6,0.5-3.7,0.5-6.3v-6.3c-0.6,1-1.5,1.8-2.7,2.3c-1.2,0.6-2.7,0.9-4.4,0.9c-2.8,0-5.1-0.6-6.7-2c-1.7-1.4-2.9-3.2-3.6-5.6
		c-0.7-2.3-1.1-5-1.1-7.9c0-3.5,0.5-6.5,1.4-9.2c0.9-2.6,2.4-4.7,4.4-6.2c2-1.5,4.7-2.2,8-2.2c3.3,0,5.9,0.7,7.9,2.2
		c2,1.5,3.5,3.5,4.5,6c0.9,2.6,1.4,5.5,1.4,8.8v18.7c0,3.4-0.4,6.5-1.2,9.3c-0.8,2.8-2.2,5-4.2,6.6
		C491.6,94.6,488.8,95.4,485.2,95.4z M485.2,67.6c1.2,0,2.2-0.3,2.9-0.9c0.7-0.6,1.3-1.3,1.7-2v-8.2c0-1.5-0.1-2.9-0.4-4.1
		c-0.3-1.2-0.7-2.2-1.4-3c-0.7-0.8-1.6-1.1-2.9-1.1c-1.2,0-2.2,0.4-2.8,1.2c-0.7,0.8-1.1,1.9-1.4,3.3c-0.3,1.4-0.4,3-0.4,4.9
		c0,1.9,0.1,3.6,0.2,5.1c0.2,1.5,0.6,2.7,1.2,3.6C482.6,67.2,483.7,67.6,485.2,67.6z"/>
	<path class="st8" d="M269.4,163.8V111H282c3.6,0,6.6,0.4,9,1.3c2.5,0.8,4.3,2.3,5.6,4.3c1.3,2,1.9,4.8,1.9,8.3c0,2.1-0.2,4-0.6,5.7
		c-0.4,1.7-1.1,3.1-2,4.3c-0.9,1.2-2.2,2.1-3.9,2.8l7.4,26h-9.6l-6.4-24.2H279v24.2H269.4z M279,133.6h3c1.9,0,3.4-0.3,4.5-0.8
		c1.1-0.5,1.9-1.4,2.4-2.6c0.5-1.2,0.7-2.7,0.7-4.6c0-2.6-0.5-4.6-1.5-6c-1-1.3-2.8-2-5.6-2H279V133.6z"/>
	<path class="st8" d="M305.8,163.8V111h22.1v6.8h-12.5V133h9.8v6.7h-9.8v17.5h12.6v6.6H305.8z"/>
	<path class="st8" d="M347.6,164.5c-3.2,0-5.8-0.6-7.9-1.9c-2.1-1.2-3.7-3.1-4.8-5.4c-1.1-2.4-1.7-5.3-1.8-8.8l8.3-1.6
		c0.1,2,0.3,3.8,0.7,5.4c0.4,1.6,1,2.8,1.9,3.6c0.8,0.8,2,1.3,3.4,1.3c1.6,0,2.7-0.5,3.3-1.4c0.7-0.9,1-2.1,1-3.5
		c0-2.3-0.5-4.2-1.6-5.7c-1-1.5-2.4-3-4.2-4.4l-6.6-5.9c-1.9-1.6-3.4-3.4-4.5-5.4c-1.1-2-1.7-4.4-1.7-7.3c0-4.2,1.2-7.4,3.6-9.6
		c2.4-2.3,5.8-3.4,10-3.4c2.5,0,4.5,0.4,6.2,1.1c1.6,0.8,3,1.8,3.9,3.2c1,1.3,1.7,2.9,2.2,4.6c0.5,1.7,0.8,3.5,0.9,5.4l-8.2,1.4
		c-0.1-1.6-0.3-3.1-0.6-4.4c-0.3-1.3-0.8-2.3-1.5-3.1c-0.7-0.7-1.8-1.1-3.2-1.1c-1.4,0-2.5,0.5-3.3,1.4c-0.8,0.9-1.1,2.1-1.1,3.5
		c0,1.8,0.4,3.2,1.1,4.4c0.7,1.2,1.8,2.3,3.2,3.5l6.6,5.8c2.2,1.8,4,4,5.6,6.4c1.5,2.5,2.3,5.4,2.3,8.9c0,2.5-0.6,4.8-1.7,6.7
		c-1.1,2-2.6,3.5-4.6,4.6C352.6,164,350.3,164.5,347.6,164.5z"/>
	<path class="st8" d="M366.6,163.9v-52.8h15.5c3.2,0,5.7,0.6,7.7,1.8c2,1.2,3.4,2.9,4.4,5.1c0.9,2.2,1.4,4.9,1.4,8.1
		c0,3.4-0.6,6.2-1.8,8.3c-1.2,2.1-2.8,3.6-4.9,4.6c-2.1,1-4.6,1.4-7.5,1.4h-5.2v23.4H366.6z M376.3,133.7h3.6c1.7,0,3.1-0.2,4.1-0.7
		c1-0.5,1.6-1.3,2-2.4c0.4-1.1,0.6-2.6,0.6-4.5c0-1.9-0.1-3.5-0.4-4.7c-0.3-1.2-0.9-2.1-1.8-2.6c-0.9-0.6-2.4-0.8-4.4-0.8h-3.6
		V133.7z"/>
	<path class="st8" d="M415.9,164.5c-3.7,0-6.7-0.7-8.9-2.1c-2.2-1.4-3.8-3.4-4.8-6c-1-2.6-1.4-5.7-1.4-9.2v-19.7
		c0-3.6,0.5-6.6,1.4-9.2c1-2.5,2.5-4.5,4.8-5.8c2.2-1.3,5.2-2,8.9-2c3.8,0,6.8,0.7,9,2c2.2,1.3,3.8,3.3,4.8,5.8
		c1,2.5,1.5,5.6,1.5,9.2v19.8c0,3.5-0.5,6.6-1.5,9.2c-1,2.6-2.6,4.6-4.8,6C422.8,163.8,419.8,164.5,415.9,164.5z M415.9,157.4
		c1.6,0,2.8-0.3,3.5-1c0.8-0.7,1.3-1.6,1.5-2.9c0.3-1.2,0.4-2.5,0.4-4v-24.3c0-1.5-0.1-2.8-0.4-4c-0.3-1.2-0.8-2.1-1.5-2.8
		c-0.8-0.7-1.9-1-3.5-1c-1.5,0-2.7,0.3-3.5,1c-0.8,0.7-1.3,1.6-1.6,2.8c-0.3,1.2-0.4,2.5-0.4,4v24.3c0,1.4,0.1,2.8,0.4,4
		c0.2,1.2,0.7,2.2,1.5,2.9C413.2,157.1,414.4,157.4,415.9,157.4z"/>
	<path class="st8" d="M437,163.8V111h6.7l12.8,30.1V111h7.9v52.8h-6.4l-12.9-31.5v31.5H437z"/>
	<path class="st8" d="M485.7,164.5c-3.2,0-5.8-0.6-7.9-1.9c-2.1-1.2-3.7-3.1-4.8-5.4c-1.1-2.4-1.7-5.3-1.8-8.8l8.3-1.6
		c0.1,2,0.3,3.8,0.7,5.4c0.4,1.6,1,2.8,1.9,3.6c0.8,0.8,2,1.3,3.4,1.3c1.6,0,2.7-0.5,3.3-1.4c0.7-0.9,1-2.1,1-3.5
		c0-2.3-0.5-4.2-1.6-5.7c-1-1.5-2.4-3-4.2-4.4l-6.6-5.9c-1.9-1.6-3.4-3.4-4.5-5.4c-1.1-2-1.7-4.4-1.7-7.3c0-4.2,1.2-7.4,3.6-9.6
		c2.4-2.3,5.8-3.4,10-3.4c2.5,0,4.5,0.4,6.2,1.1c1.6,0.8,3,1.8,3.9,3.2c1,1.3,1.7,2.9,2.2,4.6c0.5,1.7,0.8,3.5,0.9,5.4l-8.2,1.4
		c-0.1-1.6-0.3-3.1-0.6-4.4c-0.3-1.3-0.8-2.3-1.5-3.1c-0.7-0.7-1.8-1.1-3.2-1.1c-1.4,0-2.5,0.5-3.3,1.4c-0.8,0.9-1.1,2.1-1.1,3.5
		c0,1.8,0.4,3.2,1.1,4.4c0.7,1.2,1.8,2.3,3.2,3.5l6.6,5.8c2.2,1.8,4,4,5.6,6.4c1.5,2.5,2.3,5.4,2.3,8.9c0,2.5-0.6,4.8-1.7,6.7
		c-1.1,2-2.6,3.5-4.6,4.6C490.7,164,488.4,164.5,485.7,164.5z"/>
	<path class="st8" d="M504.1,163.8V111h22.1v6.8h-12.5V133h9.8v6.7h-9.8v17.5h12.6v6.6H504.1z"/>
	<rect x="269.4" y="179.2" class="st9" width="13" height="7.2"/>
	<rect x="284.6" y="179.2" class="st10" width="13" height="7.2"/>
	<rect x="299.8" y="179.2" class="st11" width="13" height="7.2"/>
	<rect x="315" y="179.2" class="st12" width="13" height="7.2"/>
	<rect x="330.2" y="179.2" class="st13" width="13" height="7.2"/>
	<rect x="345.5" y="179.2" class="st14" width="13" height="7.2"/>
	<rect x="360.7" y="179.2" class="st15" width="13" height="7.2"/>
	<rect x="375.9" y="179.2" class="st16" width="13" height="7.2"/>
	<rect x="391.1" y="179.2" class="st17" width="13" height="7.2"/>
	<rect x="406.3" y="179.2" class="st18" width="13" height="7.2"/>
	<rect x="421.6" y="179.2" class="st19" width="13" height="7.2"/>
	<rect x="436.8" y="179.2" class="st20" width="13" height="7.2"/>
	<rect x="452" y="179.2" class="st21" width="13" height="7.2"/>
	<rect x="467.2" y="179.2" class="st22" width="13" height="7.2"/>
	<rect x="482.4" y="179.2" class="st23" width="13" height="7.2"/>
	<rect x="429.3" y="66.1" class="st7" width="12.9" height="7.2"/>
	<rect x="497.7" y="179.2" class="st24" width="13" height="7.2"/>
	<rect x="512.9" y="179.2" class="st25" width="13" height="7.2"/>
</g>
</svg>
